<?xml version="1.0" encoding="UTF-8"?>
<svg xmlns="http://www.w3.org/2000/svg" viewBox="0 0 1461 821" width="1461" height="821">
<path d="M0.25 0.25C487.08 0.25 973.92 0.25 1460.75 0.25C1460.75 273.75 1460.75 547.25 1460.75 820.75C973.92 820.75 487.08 820.75 0.25 820.75C0.25 547.25 0.25 273.75 0.25 0.25ZM481.73 463.5C478.87 460.3 477.64 455.53 475.9 451.61C472.3 443.49 468.89 435.28 465.4 427.12C454.14 400.79 442.54 374.62 431.19 348.34C427.05 338.77 422.86 329.19 418.99 319.51C417.59 316.02 416.45 309.55 412.89 307.62C409.74 305.92 404.97 306.8 401.5 306.82C393.83 306.88 386.17 306.86 378.5 306.8C370.17 306.74 361.83 306.64 353.5 306.72C349.43 306.76 345.17 306.03 341.82 308.5C339.68 314.57 348.23 328.41 350.96 334.56C361.41 358.06 371.39 381.86 382.4 405.11C398.56 439.27 413.64 474.07 428.81 508.68C432.33 516.74 436.28 524.64 439.69 532.74C440.94 535.72 442.03 540.85 445.6 541.84C450.64 543.24 457.29 542.06 462.5 542.04C473.83 542.01 485.17 542.07 496.5 542.13C500.7 542.16 511.09 543.38 514.26 540.77C517.73 537.93 519.47 530.75 521.32 526.75C526.46 515.65 532.01 504.73 537.15 493.62C553.95 457.36 571.32 421.28 588.82 385.35C597.82 366.88 606.25 348.14 615.05 329.56C617.56 324.24 625.15 313.02 622.5 307.73C617.79 305.79 611.58 306.72 606.5 306.72C595.83 306.73 585.17 306.79 574.5 306.73C569.89 306.7 562.22 305.23 558.16 307.65C555.53 309.21 554.46 313.18 553.29 315.78C549.9 323.28 546.01 330.55 542.49 338C529.25 366.03 515.16 393.7 502.55 422.03C498.19 431.83 493.36 441.47 488.6 451.06C486.73 454.82 485.21 461.32 481.73 463.5ZM1066.5 393.91C1065.78 388.56 1066.18 382.92 1066.16 377.5C1066.12 366.5 1066.24 355.5 1066.18 344.5C1066.16 340.22 1066.5 335.78 1065.77 331.55C1063.84 320.37 1054.06 311.12 1043.32 308.35C1039.03 307.24 1034.94 306.77 1030.5 306.88C1026.13 306.99 1022.11 307.9 1018.07 309.54C999.5 317.07 997.89 329.36 997.9 347.5C997.91 358.17 998.08 368.83 997.98 379.5C997.94 384.32 998.26 389.28 997.5 394.02C992.3 395.56 985.95 394.6 980.5 394.61C969.83 394.63 959.17 394.7 948.5 394.73C941.69 394.75 930.97 395.67 926.87 402.37C925.07 405.29 925.81 409.25 924.91 412.5C922.46 413.81 918.92 413.33 917.06 415.57C914.64 418.5 914.28 424.84 914.1 428.5C913.45 441.8 919.46 455.46 931.96 461.49C939.11 464.94 946.75 464.57 954.5 464.59C963.83 464.6 973.17 464.52 982.5 464.52C987.09 464.52 991.96 464.1 996.5 464.69C999.23 468.77 997.87 480.16 997.87 485.5C997.87 494.5 997.8 503.5 997.86 512.5C997.97 529.28 998.32 541.21 1015.23 549.31C1018.49 550.87 1021.91 551.89 1025.5 552.3C1030.36 552.86 1035.68 552.97 1040.5 552.03C1051.89 549.82 1062.75 540.67 1065.54 529.15C1066.83 523.87 1066.18 517.91 1066.22 512.5C1066.29 501.83 1066.14 491.17 1066.22 480.5C1066.25 475.49 1065.81 470.27 1066.5 465.33C1071.65 463.01 1079.69 464.51 1085.5 464.46C1094.17 464.39 1102.83 464.35 1111.5 464.33C1116.1 464.32 1120.93 464.76 1125.47 463.9C1138.68 461.39 1149.37 448.43 1150.53 435.25C1151.01 429.91 1150.69 424.38 1149.43 419.19C1146.71 408.04 1137.24 397.14 1125.48 395.09C1119.67 394.08 1113.38 394.71 1107.5 394.7C1100.17 394.69 1092.83 394.55 1085.5 394.62C1079.6 394.67 1071.98 395.96 1066.5 393.91ZM790.33 466.5C793.82 460.74 791.93 446.33 791.27 439.5C788.39 409.76 773.1 384.61 747.46 369C692.9 335.8 613.38 356.34 590.67 418.24C587.18 427.74 585.62 438.41 585.47 448.51C585.33 457.96 586.56 467.33 589.08 476.46C602.61 525.53 655.54 547.25 702.5 544.95C724.14 543.89 746.58 537.69 764.16 524.65C769.93 520.36 777.59 514.24 780.29 507.5C767.02 497.99 753.76 488.49 740.5 478.98C737.98 480.14 736.4 481.99 734.31 483.81C730.12 487.44 725.22 490.46 720.06 492.51C698.36 501.14 656.65 497.1 651.97 468.5C660.28 465.85 676.21 467.78 685.5 467.75C708.5 467.68 731.5 467.43 754.5 467.66C762.5 467.74 770.5 467.65 778.5 467.61C782.49 467.59 786.77 468.32 790.33 466.5ZM924 356.5C919.62 354.36 914.21 355.64 909.5 356.24C897.66 357.76 886.41 361.96 877.23 369.75C873.41 372.98 870.98 377.34 867.5 380.73C865.79 373.72 868.88 365.03 865.66 358.5C860.96 356.93 855.44 357.59 850.5 357.62C841.16 357.68 831.84 357.69 822.5 357.61C816.43 357.56 808.95 356.45 803.23 358.5C800.84 363.19 801.82 369.31 801.8 374.5C801.77 385.5 801.94 396.5 801.89 407.5C801.76 437.82 801.58 468.18 801.89 498.5C801.97 507.16 801.95 515.84 801.91 524.5C801.88 529.91 801.31 535.62 802.5 540.89C806.88 543.43 813.47 542.3 818.5 542.27C829.17 542.2 839.83 542.11 850.5 542.21C855.68 542.26 861.78 543.03 866.5 540.76C868.65 534.07 867.41 525.53 867.41 518.5C867.41 502.83 867.34 487.17 867.37 471.5C867.41 449.41 866.98 428.16 890.16 417.65C898.38 413.92 906.76 413.79 915.5 412.7C917.58 410.13 918.74 407.01 920.98 404.47C922.16 403.14 924.07 401.96 924.65 400.22C926.13 395.81 924.77 380.13 924.8 374.5C924.83 368.9 926.23 361.65 924 356.5ZM730.12 431.5C724.4 433.16 717.52 432.24 711.5 432.29C699.17 432.39 686.83 432.39 674.5 432.36C667.43 432.35 658 433.97 651.39 431.5C654.24 389.72 723.84 390.1 730.12 431.5Z" fill="#ffffff" fill-rule="evenodd" stroke="#ffffff" stroke-width="0.25" stroke-linejoin="round"/>
<path d="M481.73 463.5C485.21 461.32 486.73 454.82 488.6 451.06C493.36 441.47 498.19 431.83 502.55 422.03C515.16 393.7 529.25 366.03 542.49 338C546.01 330.55 549.9 323.28 553.29 315.78C554.46 313.18 555.53 309.21 558.16 307.65C562.22 305.23 569.89 306.7 574.5 306.73C585.17 306.79 595.83 306.73 606.5 306.72C611.58 306.72 617.79 305.79 622.5 307.73C625.15 313.02 617.56 324.24 615.05 329.56C606.25 348.14 597.82 366.88 588.82 385.35C571.32 421.28 553.95 457.36 537.15 493.62C532.01 504.73 526.46 515.65 521.32 526.75C519.47 530.75 517.73 537.93 514.26 540.77C511.09 543.38 500.7 542.16 496.5 542.13C485.17 542.07 473.83 542.01 462.5 542.04C457.29 542.06 450.64 543.24 445.6 541.84C442.03 540.85 440.94 535.72 439.69 532.74C436.28 524.64 432.33 516.74 428.81 508.68C413.64 474.07 398.56 439.27 382.4 405.11C371.39 381.86 361.41 358.06 350.96 334.56C348.23 328.41 339.68 314.57 341.82 308.5C345.17 306.03 349.43 306.76 353.5 306.72C361.83 306.64 370.17 306.74 378.5 306.8C386.17 306.86 393.83 306.88 401.5 306.82C404.97 306.8 409.74 305.92 412.89 307.62C416.45 309.55 417.59 316.02 418.99 319.51C422.86 329.19 427.05 338.77 431.19 348.34C442.54 374.62 454.14 400.79 465.4 427.12C468.89 435.28 472.3 443.49 475.9 451.61C477.64 455.53 478.87 460.3 481.73 463.5ZM790.33 466.5C786.77 468.32 782.49 467.59 778.5 467.61C770.5 467.65 762.5 467.74 754.5 467.66C731.5 467.43 708.5 467.68 685.5 467.75C676.21 467.78 660.28 465.85 651.97 468.5C656.65 497.1 698.36 501.14 720.06 492.51C725.22 490.46 730.12 487.44 734.31 483.81C736.4 481.99 737.98 480.14 740.5 478.98C753.76 488.49 767.02 497.99 780.29 507.5C777.59 514.24 769.93 520.36 764.16 524.65C746.58 537.69 724.14 543.89 702.5 544.95C655.54 547.25 602.61 525.53 589.08 476.46C586.56 467.33 585.33 457.96 585.47 448.51C585.62 438.41 587.18 427.74 590.67 418.24C613.38 356.34 692.9 335.8 747.46 369C773.1 384.61 788.39 409.76 791.27 439.5C791.93 446.33 793.82 460.74 790.33 466.5ZM924 356.5C926.23 361.65 924.83 368.9 924.8 374.5C924.77 380.13 926.13 395.81 924.65 400.22C924.07 401.96 922.16 403.14 920.98 404.47C918.74 407.01 917.58 410.13 915.5 412.7C906.76 413.79 898.38 413.92 890.16 417.65C866.98 428.16 867.41 449.41 867.37 471.5C867.34 487.17 867.41 502.83 867.41 518.5C867.41 525.53 868.65 534.07 866.5 540.76C861.78 543.03 855.68 542.26 850.5 542.21C839.83 542.11 829.17 542.2 818.5 542.27C813.47 542.3 806.88 543.43 802.5 540.89C801.31 535.62 801.88 529.91 801.91 524.5C801.95 515.84 801.97 507.16 801.89 498.5C801.58 468.18 801.76 437.82 801.89 407.5C801.94 396.5 801.77 385.5 801.8 374.5C801.82 369.31 800.84 363.19 803.23 358.5C808.95 356.45 816.43 357.56 822.5 357.61C831.84 357.69 841.16 357.68 850.5 357.62C855.44 357.59 860.96 356.93 865.66 358.5C868.88 365.03 865.79 373.72 867.5 380.73C870.98 377.34 873.41 372.98 877.23 369.75C886.41 361.96 897.66 357.76 909.5 356.24C914.21 355.64 919.62 354.36 924 356.5ZM730.12 431.5C723.84 390.1 654.24 389.72 651.39 431.5C658 433.97 667.43 432.35 674.5 432.36C686.83 432.39 699.17 432.39 711.5 432.29C717.52 432.24 724.4 433.16 730.12 431.5Z" fill="#051d3e" fill-rule="evenodd" stroke="#051d3e" stroke-width="0.25" stroke-linejoin="round"/>
<path d="M1066.5 393.91C1071.98 395.96 1079.6 394.67 1085.5 394.62C1092.83 394.55 1100.17 394.69 1107.5 394.7C1113.38 394.71 1119.67 394.08 1125.48 395.09C1137.24 397.14 1146.71 408.04 1149.43 419.19C1150.69 424.38 1151.01 429.91 1150.53 435.25C1149.37 448.43 1138.68 461.39 1125.47 463.9C1120.93 464.76 1116.1 464.32 1111.5 464.33C1102.83 464.35 1094.17 464.39 1085.5 464.46C1079.69 464.51 1071.65 463.01 1066.5 465.33C1065.81 470.27 1066.25 475.49 1066.22 480.5C1066.14 491.17 1066.29 501.83 1066.22 512.5C1066.18 517.91 1066.83 523.87 1065.54 529.15C1062.75 540.67 1051.89 549.82 1040.5 552.03C1035.68 552.97 1030.36 552.86 1025.5 552.3C1021.91 551.89 1018.49 550.87 1015.23 549.31C998.32 541.21 997.97 529.28 997.86 512.5C997.8 503.5 997.87 494.5 997.87 485.5C997.87 480.16 999.23 468.77 996.5 464.69C991.96 464.1 987.09 464.52 982.5 464.52C973.17 464.52 963.83 464.6 954.5 464.59C946.75 464.57 939.11 464.94 931.96 461.49C919.46 455.46 913.45 441.8 914.1 428.5C914.28 424.84 914.64 418.5 917.06 415.57C918.92 413.33 922.46 413.81 924.91 412.5C925.81 409.25 925.07 405.29 926.87 402.37C930.97 395.67 941.69 394.75 948.5 394.73C959.17 394.7 969.83 394.63 980.5 394.61C985.95 394.6 992.3 395.56 997.5 394.02C998.26 389.28 997.94 384.32 997.98 379.5C998.08 368.83 997.91 358.17 997.9 347.5C997.89 329.36 999.5 317.07 1018.07 309.54C1022.11 307.9 1026.13 306.99 1030.5 306.88C1034.94 306.77 1039.03 307.24 1043.32 308.35C1054.06 311.12 1063.84 320.37 1065.77 331.55C1066.5 335.78 1066.16 340.22 1066.18 344.5C1066.24 355.5 1066.12 366.5 1066.16 377.5C1066.18 382.92 1065.78 388.56 1066.5 393.91Z" fill="#02b073" fill-rule="evenodd" stroke="#02b073" stroke-width="0.25" stroke-linejoin="round"/>
</svg>